<svg
  width="128"
  height="128"
  viewBox="0 0 48 48"
  role="img"
  xmlns="http://www.w3.org/2000/svg"
>
  <title>OpRec アプリアイコン</title>

  <!-- 左上 -->
  <rect x="3" y="3" width="1" height="8" rx="0.5" fill="#e02020"/>
  <rect x="3" y="3" width="8" height="1" rx="0.5" fill="#e02020"/>
  <!-- 右上 -->
  <rect x="44" y="3" width="1" height="8" rx="0.5" fill="#e02020"/>
  <rect x="37" y="3" width="8" height="1" rx="0.5" fill="#e02020"/>
  <!-- 左下 -->
  <rect x="3" y="37" width="1" height="8" rx="0.5" fill="#e02020"/>
  <rect x="3" y="44" width="8" height="1" rx="0.5" fill="#e02020"/>
  <!-- 右下 -->
  <rect x="44" y="37" width="1" height="8" rx="0.5" fill="#e02020"/>
  <rect x="37" y="44" width="8" height="1" rx="0.5" fill="#e02020"/>

  <!-- 中央円 -->
  <circle cx="24" cy="24" r="15" fill="#e02020"/>

  <!-- マイク -->
  <rect x="20" y="12" width="8" height="14" rx="4" fill="white"/>
  <path
    d="M 18 20
    C 16 31 32 31 30 20"
    fill="none"
    stroke="white"
    stroke-width="1.5"
    stroke-linecap="round"
  />
  <line x1="24" y1="29" x2="24" y2="34" stroke="white" stroke-width="1.5" stroke-linecap="round"/>
  <rect x="20" y="34" width="8" height="1.5" rx="1" fill="white"/>

  <text
    x="24"
    y="46.5"
    text-anchor="middle"
    font-family="sans-serif"
    font-size="6"
    font-weight="700"
    fill="#e02020"
  >OpRec</text>
</svg>